PathFileType	4	(X/Y/Z)	RBDS021\RBDS021runT25.trc
DataRate	CameraRate	NumFrames	NumMarkers	Units	OrigDataRate	OrigDataStartFrame	OrigNumFrames
150.000000	150.000000	4	33	mm	150.000000	1125	4500
Frame#	Time	L.ASIS			L.Heel.Bottom			L.Heel.Lateral			L.Heel.Top			L.Iliac.Crest			L.MT1			L.MT5			L.PSIS			L.Shank.Bottom.Lateral			L.Shank.Bottom.Medial			L.Shank.Top.Lateral			L.Shank.Top.Medial			L.Thigh.Bottom.Lateral			L.Thigh.Bottom.Medial			L.Thigh.Top.Lateral			L.Thigh.Top.Medial			R.ASIS			R.ASY			R.Heel.Bottom			R.Heel.Lateral			R.Heel.Top			R.Iliac.Crest			R.MT1			R.MT5			R.PSIS			R.Shank.Bottom.Lateral			R.Shank.Bottom.Medial			R.Shank.Top.Lateral			R.Shank.Top.Medial			R.Thigh.Bottom.Lateral			R.Thigh.Bottom.Medial			R.Thigh.Top.Lateral			R.Thigh.Top.Medial			
		X1	Y1	Z1	X2	Y2	Z2	X3	Y3	Z3	X4	Y4	Z4	X5	Y5	Z5	X6	Y6	Z6	X7	Y7	Z7	X8	Y8	Z8	X9	Y9	Z9	X10	Y10	Z10	X11	Y11	Z11	X12	Y12	Z12	X13	Y13	Z13	X14	Y14	Z14	X15	Y15	Z15	X16	Y16	Z16	X17	Y17	Z17	X18	Y18	Z18	X19	Y19	Z19	X20	Y20	Z20	X21	Y21	Z21	X22	Y22	Z22	X23	Y23	Z23	X24	Y24	Z24	X25	Y25	Z25	X26	Y26	Z26	X27	Y27	Z27	X28	Y28	Z28	X29	Y29	Z29	X30	Y30	Z30	X31	Y31	Z31	X32	Y32	Z32	X33	Y33	Z33	

1126	7.500000000000001	1962.677630468656	985.4753708994724	884.0816539341633	1931.731429038413	40.91510939139462	993.141020427659	1947.956903692533	52.40884137010934	939.4998668189932	1940.467073150327	85.93655087012499	981.8435643750464	1895.172143417517	1068.191781568991	842.1051141643989	2150.023843690201	50.97322463501298	975.8146231331568	2089.577668035219	32.44209600323035	876.9092332701234	1789.601580220454	1023.971671131304	965.4971527643785	1986.092495872022	171.9521465306625	894.1155539806695	1955.081671422399	180.5625328501366	939.3541794766171	1975.305073925677	248.8216457574514	872.8068085793723	1945.062168781329	257.7022037406252	916.6358385974598	1964.80565444787	628.2506168585011	823.6790032206728	1906.286975494937	614.866741005823	861.8554583195881	1926.349107606704	729.6951767526472	804.2039023701319	1869.525266783717	716.7519070126657	839.9759059365866	1976.967854958545	977.0670204050739	1100.715534534321	1430.810506083618	228.3261203677216	1086.763976448937	1379.586164920873	385.9936706988527	1000.158679625939	1379.142425316233	374.8109848441609	1055.094464718266	1419.668846242016	386.0838165241163	1020.925997265434	1937.329996252558	1055.787066481888	1146.624865308987	1417.358639967356	179.477168856471	1036.628055703634	1364.159967708379	228.3446707607841	1121.833050119274	1800.642374558754	1020.894600133163	1045.879262648978	1491.352355855322	385.3915340242807	1104.618886090017	1492.894219710252	406.456779852215	1057.67319071392	1561.299935386407	429.120477477061	1124.570582485235	1556.884186003047	452.3347198344819	1077.073415158284	1833.081738649598	623.3975067522885	1164.540106449847	1771.748507260095	634.0097736833535	1125.233729104685	1840.616684926366	732.0474901240285	1176.273058724836	1782.617781705496	742.1294875651315	1138.584134291322	
1127	7.506666666666667	1961.006230779085	981.04035762258	883.5875048790522	1914.457793288675	37.55367600725625	994.7816301250267	1930.948908318119	50.96998861775391	941.6381042250532	1923.598543751035	82.96401995838106	985.2059029126418	1894.129428302063	1061.867151171286	840.9483015881111	2133.207254203955	47.59090143180643	978.5389027162801	2072.660971686385	32.5793834818305	878.5529672795052	1787.820773973709	1018.195249298531	965.5752920173661	1973.851963328994	168.9732925780503	897.0963171985946	1941.896876736177	179.0842438918311	941.3075773458373	1966.025515169442	246.0155712649347	874.7687185504652	1935.007295850563	256.3575163501152	917.6895368404486	1962.57113179772	624.3081416577129	823.9583571851965	1904.175829431361	611.1395758778905	862.4616599490116	1923.975229654523	725.6268491455469	804.0586824681396	1867.431364185494	712.9619653194716	840.3288072013947	1976.177797792778	972.3407154491147	1099.889441923514	1434.928885007299	236.6731269189604	1087.575769597852	1389.394709825488	394.4793302553583	998.1199780575325	1388.516183557016	384.2444378039556	1053.269140466403	1429.425843227603	393.4777252599409	1018.97398582041	1936.344463448574	1049.650064959682	1146.530895551329	1419.87250894968	187.2915013405029	1038.480914583225	1368.437082534322	239.564045151684	1122.623086768723	1798.9112653861	1014.438957691918	1045.904764608614	1500.913169197529	390.7924254439188	1103.825643181411	1503.661111405522	411.42751307918	1056.715640728818	1572.425644188821	431.6598692446239	1123.957606008673	1569.420518064638	454.6389647433896	1076.259291904458	1840.148466862255	615.8335982311906	1164.292947221509	1779.34782097692	624.306233852329	1123.594009081867	1844.061892309609	724.7689597250618	1175.382194440502	1786.680831457302	732.8135734030114	1136.250947736312	
1128	7.513333333333334	1959.06897233814	976.5650151102969	883.1699274758001	1897.174667625868	34.75182493491717	996.0653367076028	1913.975168696166	50.04884516411032	943.435271516714	1906.666602078145	80.52092485685064	988.1686711672234	1892.836936644336	1055.337759471927	839.8143810148377	2116.340426344533	45.07787442053901	980.8691339717507	2055.85633615703	33.10100835264561	879.9476833419227	1785.803047782835	1012.600505000345	965.7764487854272	1961.732977317799	166.5587202301944	899.8165473333387	1928.808630821548	178.1458575705836	942.939705168279	1956.876791469341	243.7045696063928	876.5490704059378	1925.072823150952	255.4659273988339	918.5177809727566	1960.118883720703	620.5147182326675	824.2406832927878	1901.87129178319	607.5889009442011	863.1164793472404	1921.422385685383	721.7187683840485	803.9047177182838	1865.169626712038	709.3590640119658	840.7027995329374	1975.108946883121	967.2571369626921	1098.978475436845	1440.87475969342	244.668014781798	1088.533312526901	1400.083612314048	402.257484312451	996.3921825918599	1399.068639851212	392.9998759552247	1051.732431487389	1440.115537360646	400.2871513842603	1017.139481505771	1935.36461612815	1042.887224486652	1146.3381750303	1424.097849876597	194.738508329337	1040.579615757524	1374.778829793142	250.2215188688785	1123.817273487576	1796.823280388721	1008.032569566752	1046.029057686687	1511.65720522872	395.7978997669618	1103.124910496	1515.487061735756	416.0229037645169	1055.892181011817	1584.601835929709	433.8124899156694	1123.422379167241	1582.889778104985	456.5540823570365	1075.551025883195	1847.594452405069	608.4890046366419	1164.019282726954	1787.26549179879	614.7823367054452	1122.178624498345	1847.783316978527	717.5784081593512	1174.527291005419	1790.9759802888	723.5426818578062	1134.170587480849	
1129	7.52	1956.904832509017	972.1598950920589	882.7939765107855	1880.066428988598	32.63239456603234	997.0234441829285	1897.182101611101	49.62609225231534	944.8799331714733	1889.864462432757	78.70205853718851	990.6477918282246	1891.241430378098	1048.739114947075	838.7353706188611	2099.59279619955	43.35581125232126	982.6953783824549	2039.250481604538	33.83680802869019	881.046513784695	1783.591993420801	1007.335481061485	966.103294659349	1949.760071586885	164.7227133852865	902.1635207239847	1915.921722759216	177.7373088558921	944.2015751198282	1947.821149836978	241.8962468671966	878.0798234745096	1915.295890364593	255.0132112080336	919.1104238482048	1957.474917478369	616.9617224145674	824.4852605078158	1899.361975280754	604.2979947974932	863.7143192632478	1918.757537530348	718.0809239393116	803.7218096950447	1862.760237883701	706.0417834372491	841.0044087459005	1973.768709595767	961.875911827093	1098.008724934702	1448.573789915856	252.1860075837699	1089.563491247468	1411.444421957804	409.3315445544858	995.0676795923579	1410.609060930481	401.0124091108094	1050.558756374222	1451.545754195871	406.5183099228918	1015.494082028043	1934.315536327143	1035.592337392553	1146.075605846337	1430.000357892664	201.7328725119687	1042.811299392517	1383.102988038982	260.1151755533428	1125.369029067338	1794.419206849918	1001.850599658405	1046.244961769707	1523.455803061341	400.3966837584119	1102.512951573819	1528.228566855169	420.2482917427637	1055.198105681658	1597.705246001483	435.6108903775415	1122.939549484361	1597.14165317846	458.1314668464644	1074.924637680703	1855.433327280653	601.5386382932761	1163.725387234861	1795.487481516076	605.6029846035846	1121.037855125078	1851.80235874569	710.6417129865995	1173.710488781322	1795.497321171116	714.4757062931377	1132.388813975481	
